<?xml version="1.0" encoding="iso-8859-1"?>
<!-- Generator: Adobe Illustrator 16.0.0, SVG Export Plug-In . SVG Version: 6.00 Build 0)  -->
<!DOCTYPE svg PUBLIC "-//W3C//DTD SVG 1.1//EN" "http://www.w3.org/Graphics/SVG/1.1/DTD/svg11.dtd">
<svg version="1.1" id="Capa_1" xmlns="http://www.w3.org/2000/svg" xmlns:xlink="http://www.w3.org/1999/xlink" x="0px" y="0px"
	 width="409.811px" height="409.811px" viewBox="0 0 409.811 409.811" style="enable-background:new 0 0 409.811 409.811;"
	 xml:space="preserve">
<g>
	<g>
		<path d="M243.166,388.976h-0.004c-18.09,0-36.207-2.472-54.77-7.476v18.971c0,5.148,4.189,9.34,9.34,9.34h83.373
			c5.148,0,9.34-4.19,9.34-9.34v-26.585c-9.281,9.111-22.1,14.313-37.588,14.891C250.357,388.868,246.996,388.976,243.166,388.976z"
			/>
		<path d="M195.498,174.922c20.749,18.607,76.584,20.389,94.948,20.452v-29.231c0-22.448-6.031-33.457-10.023-40.742
			c-1.527-2.792-2.736-4.998-2.844-6.617c-0.355-5.438-5.312-78.629-6.426-95.078c3.777-2.243,6.193-6.332,6.193-10.949
			C277.346,5.723,271.621,0,264.588,0h-50.339c-7.034,0-12.757,5.723-12.757,12.757c0,4.617,2.416,8.706,6.194,10.949
			c-1.113,16.449-6.07,89.64-6.427,95.078c-0.106,1.62-1.314,3.826-2.844,6.617c-3.991,7.285-10.022,18.294-10.022,40.742v3.348
			c2.328,0.926,4.019,2.529,5.372,3.818C194.241,173.763,194.805,174.3,195.498,174.922z"/>
		<path d="M333.852,235.779c-0.096-8.629-3.475-28.698-32.709-28.698l-0.473,0.002c0,0-82.283,3.339-111.255-22.643
			c-5.144-4.613-3.91-5.05-9.788-1.539c-10.317,6.16-20.737,14.967-30.814,23.485c-10.233,8.651-20.815,17.597-27.072,19.705
			c-10.765,3.627-23.458,4.168-30.065,4.168c-3.628,0-5.934-0.16-5.948-0.16l-9.771-0.709v110.074h9.112
			c29.343,0,48.678,8.519,65.737,16.033c3.288,1.448,6.395,2.816,9.485,4.084c28.789,11.808,55.896,17.547,82.873,17.547
			c0.001,0,0.002,0,0.003,0c3.696,0,6.938-0.103,9.353-0.191c13.814-0.516,37.307-5.948,43.854-35.795
			c8.297-4.336,13.98-10.491,16.924-18.348c1.381-3.668,2.08-7.627,2.08-11.766c0-3.225-0.428-6.261-1.041-8.958
			c6.01-4.804,10.027-10.825,11.75-17.696c0.615-2.423,0.943-5.072,0.977-7.878c0.078-6.856-1.316-11.976-3.174-15.737
			C328.729,255.504,333.977,247.162,333.852,235.779z"/>
	</g>
</g>
<g>
</g>
<g>
</g>
<g>
</g>
<g>
</g>
<g>
</g>
<g>
</g>
<g>
</g>
<g>
</g>
<g>
</g>
<g>
</g>
<g>
</g>
<g>
</g>
<g>
</g>
<g>
</g>
<g>
</g>
</svg>
